<?xml version="1.0" encoding="UTF-8"?>
<svg xmlns="http://www.w3.org/2000/svg" xmlns:xlink="http://www.w3.org/1999/xlink" width="60px" height="60px" viewBox="0 0 60 60" version="1.1">
    <!-- Generator: Sketch 51.1 (57501) - http://www.bohemiancoding.com/sketch -->
    <title>04 - Coin</title>
    <desc>Created with Sketch.</desc>
    <defs/>
    <g id="Page-1" stroke="none" stroke-width="1" fill="none" fill-rule="evenodd">
        <g id="04---Coin" transform="translate(0.000000, -1.000000)" fill-rule="nonzero">
            <path d="M60,31 C60.0000364,44.2011807 51.3705733,55.8510339 38.7423542,59.6980138 C26.1141351,63.5449937 12.4551983,58.6849362 5.09520428,47.7258459 C-2.26478976,36.7667556 -1.59600535,22.2843718 6.74267434,12.0502331 C15.081354,1.81609449 29.1300706,-1.76444671 41.35,3.23 C52.6294889,7.84007624 59.9999664,18.8147765 60,31 Z" id="Shape" fill="#F9E37E"/>
            <circle id="Oval" fill="#FFD201" cx="30" cy="31" r="28"/>
            <path d="M42,15 C34.888701,9.67568876 25.118294,9.67793887 18.0094481,15.005525 C10.9006022,20.3331111 8.15589041,29.710073 11.27,38.03 C7.86795693,37.0388713 4.72886876,35.3036626 2.08,32.95 C2.02,32.31 2,31.66 2,31 C1.99994398,21.8432175 6.47721402,13.2649702 13.9893083,8.02902658 C21.5014025,2.79308295 31.0990319,1.5610992 39.69,4.73 C41.2149061,7.93869232 42.0041072,11.4473913 42,15 Z" id="Shape" fill="#FDE35D"/>
            <circle id="Oval" fill="#FFA600" cx="30" cy="31" r="22"/>
            <path d="M50,31 C50.002858,40.8819222 42.7881327,49.2846268 33.0194791,50.7765393 C23.2508256,52.2684519 13.8568959,46.4022956 10.91,36.97 C10.85,36.78 10.8,36.6 10.74,36.41 C9.05418219,30.3826674 10.284387,23.9137571 14.0649689,18.92598 C17.8455509,13.9382029 23.741351,11.0056706 30,11 C32.9069681,10.9952003 35.7789729,11.633803 38.41,12.87 C38.95,13.12 39.47,13.39 39.98,13.69 C46.1792755,17.2488687 50.0014311,23.8518142 50,31 Z" id="Shape" fill="#FFD201"/>
            <path d="M52,31 C52.0089822,39.7820647 46.7890857,47.7264438 38.7248725,51.2039727 C30.6606593,54.6815015 21.3003748,53.0245305 14.92,46.99 C15.65,46.76 16.38,46.52 17.1,46.26 C24.1403404,52.2187748 34.3439467,52.5860716 41.7945034,47.1489222 C49.2450602,41.7117727 52.0074634,31.8823466 48.48,23.36 C48.95,22.75 49.4,22.13 49.84,21.5 C51.2633526,24.4646007 52.0015758,27.7114156 52,31 Z" id="Shape" fill="#FFA600"/>
            <path d="M60,31 C60.002122,43.8931217 51.7644071,55.3451165 39.5399628,59.4433541 C27.3155184,63.5415917 13.8396871,59.3690501 6.07,49.08 C6.82,48.96 7.56,48.83 8.3,48.68 C15.7784651,57.8662033 28.2294885,61.3506545 39.389779,57.3805552 C50.5500695,53.4104558 58.0032037,42.845411 58,31 C58.0106364,25.5820596 56.4321705,20.2799442 53.46,15.75 C53.84,15.09 54.2,14.42 54.54,13.74 C58.1017089,18.7899671 60.0093561,24.8203681 60,31 Z" id="Shape" fill="#CE7F00"/>
            <path d="M52,31 C52.0089822,39.7820647 46.7890857,47.7264438 38.7248725,51.2039727 C30.6606593,54.6815015 21.3003748,53.0245305 14.92,46.99 C15.65,46.76 16.38,46.52 17.1,46.26 C24.1403404,52.2187748 34.3439467,52.5860716 41.7945034,47.1489222 C49.2450602,41.7117727 52.0074634,31.8823466 48.48,23.36 C48.95,22.75 49.4,22.13 49.84,21.5 C51.2633526,24.4646007 52.0015758,27.7114156 52,31 Z" id="Shape" fill="#F9E37E"/>
            <path d="M39.98,13.69 C39.609878,26.6682215 28.9834979,36.997701 16,37 C14.2299783,37.0032134 12.4653241,36.8052769 10.74,36.41 C9.05418219,30.3826674 10.284387,23.9137571 14.0649689,18.92598 C17.8455509,13.9382029 23.741351,11.0056706 30,11 C32.9069681,10.9952003 35.7789729,11.633803 38.41,12.87 C38.95,13.12 39.47,13.39 39.98,13.69 Z" id="Shape" fill="#FDE35D"/>
            <path d="M36,17 L36,45 C36,46.6568542 34.6568542,48 33,48 L27,48 C26.4491535,48.0016019 25.908825,47.8492015 25.44,47.56 C25.0314738,47.3114576 24.6885424,46.9685262 24.44,46.56 C24.6543137,46.6951997 24.8865927,46.7995569 25.13,46.87 C25.4112513,46.9592809 25.704935,47.0031647 26,47 L32,47 C33.6568542,47 35,45.6568542 35,44 L35,16 C35.0031647,15.704935 34.9592809,15.4112513 34.87,15.13 C35.1134073,15.2004431 35.3456863,15.3048003 35.56,15.44 C35.8492015,15.908825 36.0016019,16.4491535 36,17 Z" id="Shape" fill="#F9E37E"/>
            <path d="M35.56,15.44 C35.3456863,15.3048003 35.1134073,15.2004431 34.87,15.13 C34.5887487,15.0407191 34.295065,14.9968353 34,15 L28,15 C26.3431458,15 25,16.3431458 25,18 L25,46 C24.9968353,46.295065 25.0407191,46.5887487 25.13,46.87 C24.8865927,46.7995569 24.6543137,46.6951997 24.44,46.56 C24.1507985,46.091175 23.9983981,45.5508465 24,45 L24,17 C24,15.3431458 25.3431458,14 27,14 L33,14 C33.5508465,13.9983981 34.091175,14.1507985 34.56,14.44 C34.9685262,14.6885424 35.3114576,15.0314738 35.56,15.44 Z" id="Shape" fill="#CE7F00"/>
            <path d="M35,16 L35,44 C35,45.6568542 33.6568542,47 32,47 L26,47 C25.704935,47.0031647 25.4112513,46.9592809 25.13,46.87 C25.0407191,46.5887487 24.9968353,46.295065 25,46 L25,18 C25,16.3431458 26.3431458,15 28,15 L34,15 C34.295065,14.9968353 34.5887487,15.0407191 34.87,15.13 C34.9592809,15.4112513 35.0031647,15.704935 35,16 Z" id="Shape" fill="#CE7F00"/>
            <path d="M35,16 L35,44 C35,45.6568542 33.6568542,47 32,47 L26,47 C25.704935,47.0031647 25.4112513,46.9592809 25.13,46.87 C25.0407191,46.5887487 24.9968353,46.295065 25,46 L25,18 C25,16.3431458 26.3431458,15 28,15 L34,15 C34.295065,14.9968353 34.5887487,15.0407191 34.87,15.13 C34.9592809,15.4112513 35.0031647,15.704935 35,16 Z" id="Shape" fill="#CE7F00"/>
            <path d="M35,16 L35,44 C35,45.6568542 33.6568542,47 32,47 L26,47 C25.704935,47.0031647 25.4112513,46.9592809 25.13,46.87 C25.0407191,46.5887487 24.9968353,46.295065 25,46 L25,18 C25,16.3431458 26.3431458,15 28,15 L34,15 C34.295065,14.9968353 34.5887487,15.0407191 34.87,15.13 C34.9592809,15.4112513 35.0031647,15.704935 35,16 Z" id="Shape" fill="#EFC30A"/>
            <path d="M35,18 L35,44 C35,45.6568542 33.6568542,47 32,47 L27,47 L27,21 C27,19.3431458 28.3431458,18 30,18 L35,18 Z" id="Shape" fill="#FFD201"/>
        </g>
    </g>
</svg>
